<?xml version="1.0" encoding="utf-8"?>
<!-- Svg Vector Icons : http://www.onlinewebfonts.com/icon -->
<!DOCTYPE svg PUBLIC "-//W3C//DTD SVG 1.1//EN" "http://www.w3.org/Graphics/SVG/1.1/DTD/svg11.dtd">
<svg version="1.1" xmlns="http://www.w3.org/2000/svg" xmlns:xlink="http://www.w3.org/1999/xlink" x="0px" y="0px" viewBox="0 0 1000 1000" enable-background="new 0 0 1000 1000" xml:space="preserve">
<metadata> Svg Vector Icons : http://www.onlinewebfonts.com/icon </metadata>
<g><path d="M941,206H718C705.8,95.8,612.7,10,500,10S294.2,95.8,281.9,206H59c-26.9,0-49,22-49,49v637c0,53.9,44.1,98,98,98h784c53.9,0,98-44.1,98-98V255C990,228,967.9,206,941,206z M500,59c85.8,0,156.8,63.7,169.1,147H330.9C343.2,122.7,414.2,59,500,59z M941,892c0,27-22,49-49,49H108c-26.9,0-49-22-49-49V255h220.5c0,39.2,0,73.5,0,105.4c-14.7,7.3-24.5,24.5-24.5,41.6c0,27,22,49,49,49s49-22,49-49c0-17.2-9.8-34.3-24.5-41.6V255h343v105.4c-14.7,7.3-24.5,24.5-24.5,41.6c0,27,22.1,49,49,49s49-22,49-49c0-17.2-9.8-34.3-24.5-41.6c0-34.3,0-73.5,0-105.4H941V892z"/></g>
</svg>